<svg width="96" height="80" viewBox="0 0 96 80" fill="none" xmlns="http://www.w3.org/2000/svg">
<path d="M1 64.5V2C1 1.44772 1.44772 1 2 1H94.5C95.0523 1 95.5 1.44771 95.5 2V59M1 64.5V78.5C1 79.0523 1.44772 79.5 2 79.5H94.5C95.0523 79.5 95.5 79.0523 95.5 78.5V59M1 64.5L21.7929 43.7071C22.1834 43.3166 22.8166 43.3166 23.2071 43.7071L40.2929 60.7929C40.6834 61.1834 41.3166 61.1834 41.7071 60.7929L68.7929 33.7071C69.1834 33.3166 69.8166 33.3166 70.2071 33.7071L95.5 59M41 16C47 16 51 20.5 51 26C51 31.5 47 36 41 36C35 36 31 31 31 26C31 21 35 16 41 16Z" stroke="#212121" stroke-linejoin="round"/>
</svg>
