<svg width="188" height="100" viewBox="0 0 188 100" fill="none" xmlns="http://www.w3.org/2000/svg" style="">
<path d="M15.7407 20.3058H29.4583" stroke="#323232" stroke-width="2" stroke-linecap="round" stroke-linejoin="round" class="ljicTeRT_0"></path>
<path d="M8.78271 32.7834H36.6298" stroke="#323232" stroke-width="2" stroke-linecap="round" stroke-linejoin="round" class="ljicTeRT_1"></path>
<path d="M22.5751 20.3056L22.5999 40.1394C22.5062 49.2237 15.9072 52.3982 11.4543 54.3298C5.52422 56.6542 2.15464 60.7041 1.64746 67.3889C1.64746 81.3145 1.71548 98.2585 1.71548 98.2585" stroke="#323232" stroke-width="2" stroke-linecap="round" stroke-linejoin="round" class="ljicTeRT_2"></path>
<path d="M15.4946 73.4736C15.4946 73.4736 23.4058 82.7733 15.4946 93.3405" stroke="#323232" stroke-width="2" stroke-linecap="round" stroke-linejoin="round" class="ljicTeRT_3"></path>
<path d="M36.3725 73.4736C36.3725 73.4736 28.4614 82.7733 36.3725 93.3405" stroke="#323232" stroke-width="2" stroke-linecap="round" stroke-linejoin="round" class="ljicTeRT_4"></path>
<path d="M36.2811 45.2611C36.2811 45.2611 37.224 51.479 31.5906 56.4481C25.9572 61.4172 25.9497 65.8375 25.9497 68.2V98.2339" stroke="#323232" stroke-width="2" stroke-linecap="round" stroke-linejoin="round" class="ljicTeRT_5"></path>
<path d="M1.64693 45.2611L1.63232 16.5482C1.63232 16.5482 1.69105 9.1198 8.60874 9.12351C15.5264 9.12723 36.4558 9.12351 36.4558 9.12351C36.4558 9.12351 43.0877 9.09998 43.4175 16.5494C43.7473 23.9989 43.4175 90.808 43.4175 90.808C43.4175 90.808 43.6683 98.2339 36.4558 98.2339C29.2433 98.2339 15.41 98.2333 15.41 98.2333C15.41 98.2333 8.59597 97.7172 8.59597 90.808V69.1335" stroke="#323232" stroke-width="2" stroke-linecap="round" stroke-linejoin="round" class="ljicTeRT_6"></path>
<path d="M19.1138 5.43232C19.1138 4.94757 19.2034 4.46758 19.3774 4.01976C19.5514 3.57194 19.8063 3.16505 20.1277 2.82234C20.4491 2.47963 20.8307 2.2078 21.2506 2.02238C21.6705 1.83695 22.1205 1.74156 22.5749 1.74165C23.4927 1.74165 24.3729 2.13055 25.0219 2.82278C25.6708 3.51501 26.0354 4.45388 26.0354 5.43285" stroke="#323232" stroke-width="2" stroke-linecap="round" stroke-linejoin="round" class="ljicTeRT_7"></path>
<path d="M57 62.505V61.335C57 60.975 57.06 60.72 57.18 60.57L71.895 36.36V36.18H58.035C57.675 36.18 57.495 36.015 57.495 35.685V34.56C57.495 34.23 57.675 34.065 58.035 34.065H73.92C74.28 34.065 74.46 34.23 74.46 34.56V36.045C74.46 36.315 74.385 36.57 74.235 36.81L59.655 60.705V60.885H74.37C74.73 60.885 74.91 61.035 74.91 61.335V62.505C74.91 62.835 74.73 63 74.37 63H57.495C57.165 63 57 62.835 57 62.505Z" fill="#323232" class="ljicTeRT_8"></path>
<path d="M89.014 63H85.144C83.194 63 81.649 62.43 80.509 61.29C79.399 60.15 78.844 58.59 78.844 56.61V46.44C78.844 44.46 79.399 42.9 80.509 41.76C81.649 40.62 83.194 40.05 85.144 40.05H89.014C90.964 40.05 92.509 40.62 93.649 41.76C94.789 42.9 95.359 44.46 95.359 46.44V56.61C95.359 58.59 94.789 60.15 93.649 61.29C92.509 62.43 90.964 63 89.014 63ZM85.324 60.975H88.834C90.214 60.975 91.264 60.6 91.984 59.85C92.734 59.07 93.109 57.975 93.109 56.565V46.485C93.109 45.075 92.734 43.995 91.984 43.245C91.264 42.465 90.214 42.075 88.834 42.075H85.324C83.944 42.075 82.894 42.465 82.174 43.245C81.454 43.995 81.094 45.075 81.094 46.485V56.565C81.094 57.975 81.454 59.07 82.174 59.85C82.894 60.6 83.944 60.975 85.324 60.975Z" fill="#323232" class="ljicTeRT_9"></path>
<path d="M115.973 63H106.568C104.618 63 103.073 62.43 101.933 61.29C100.823 60.15 100.268 58.59 100.268 56.61V46.44C100.268 44.46 100.823 42.9 101.933 41.76C103.073 40.62 104.618 40.05 106.568 40.05H110.438C112.388 40.05 113.933 40.62 115.073 41.76C116.213 42.9 116.783 44.46 116.783 46.44V52.155C116.783 52.515 116.603 52.695 116.243 52.695H102.923C102.653 52.695 102.518 52.83 102.518 53.1V56.565C102.518 57.975 102.878 59.07 103.598 59.85C104.318 60.6 105.368 60.975 106.748 60.975H115.973C116.303 60.975 116.468 61.14 116.468 61.47V62.505C116.468 62.835 116.303 63 115.973 63ZM102.923 50.895H114.128C114.398 50.895 114.533 50.76 114.533 50.49V46.485C114.533 45.075 114.173 43.995 113.453 43.245C112.733 42.465 111.683 42.075 110.303 42.075H106.748C105.368 42.075 104.318 42.465 103.598 43.245C102.878 43.995 102.518 45.075 102.518 46.485V50.49C102.518 50.76 102.653 50.895 102.923 50.895Z" fill="#323232" class="ljicTeRT_10"></path>
<path d="M124.172 63H122.867C122.567 63 122.417 62.82 122.417 62.46V34.605C122.417 34.245 122.567 34.065 122.867 34.065H124.172C124.502 34.065 124.667 34.245 124.667 34.605V46.89C124.667 47.16 124.817 47.295 125.117 47.295H137.717C138.017 47.295 138.167 47.16 138.167 46.89V34.605C138.167 34.245 138.317 34.065 138.617 34.065H139.922C140.252 34.065 140.417 34.245 140.417 34.605V62.46C140.417 62.82 140.252 63 139.922 63H138.617C138.317 63 138.167 62.82 138.167 62.46V49.725C138.167 49.455 138.017 49.32 137.717 49.32H125.117C124.817 49.32 124.667 49.455 124.667 49.725V62.46C124.667 62.82 124.502 63 124.172 63Z" fill="#323232" class="ljicTeRT_11"></path>
<path d="M155.101 63H153.796C153.466 63 153.301 62.82 153.301 62.46V52.065L144.571 34.605C144.391 34.245 144.496 34.065 144.886 34.065H146.506C146.776 34.065 146.986 34.245 147.136 34.605L154.336 49.32H154.561L161.716 34.605C161.866 34.245 162.076 34.065 162.346 34.065H164.011C164.341 34.065 164.446 34.245 164.326 34.605L155.551 52.065V62.46C155.551 62.82 155.401 63 155.101 63Z" fill="#323232" class="ljicTeRT_12"></path>
<path d="M170.228 63H168.923C168.623 63 168.473 62.82 168.473 62.46V34.605C168.473 34.245 168.623 34.065 168.923 34.065H170.228C170.558 34.065 170.723 34.245 170.723 34.605V46.89C170.723 47.16 170.873 47.295 171.173 47.295H183.773C184.073 47.295 184.223 47.16 184.223 46.89V34.605C184.223 34.245 184.373 34.065 184.673 34.065H185.978C186.308 34.065 186.473 34.245 186.473 34.605V62.46C186.473 62.82 186.308 63 185.978 63H184.673C184.373 63 184.223 62.82 184.223 62.46V49.725C184.223 49.455 184.073 49.32 183.773 49.32H171.173C170.873 49.32 170.723 49.455 170.723 49.725V62.46C170.723 62.82 170.558 63 170.228 63Z" fill="#323232" class="ljicTeRT_13"></path>
<style data-made-with="vivus-instant">.ljicTeRT_0{stroke-dasharray:14 16;stroke-dashoffset:15;animation:ljicTeRT_draw_0 4900ms ease-in-out 0ms infinite,ljicTeRT_fade 4900ms linear 0ms infinite;}.ljicTeRT_1{stroke-dasharray:28 30;stroke-dashoffset:29;animation:ljicTeRT_draw_1 4900ms ease-in-out 0ms infinite,ljicTeRT_fade 4900ms linear 0ms infinite;}.ljicTeRT_2{stroke-dasharray:88 90;stroke-dashoffset:89;animation:ljicTeRT_draw_2 4900ms ease-in-out 0ms infinite,ljicTeRT_fade 4900ms linear 0ms infinite;}.ljicTeRT_3{stroke-dasharray:22 24;stroke-dashoffset:23;animation:ljicTeRT_draw_3 4900ms ease-in-out 0ms infinite,ljicTeRT_fade 4900ms linear 0ms infinite;}.ljicTeRT_4{stroke-dasharray:22 24;stroke-dashoffset:23;animation:ljicTeRT_draw_4 4900ms ease-in-out 0ms infinite,ljicTeRT_fade 4900ms linear 0ms infinite;}.ljicTeRT_5{stroke-dasharray:57 59;stroke-dashoffset:58;animation:ljicTeRT_draw_5 4900ms ease-in-out 0ms infinite,ljicTeRT_fade 4900ms linear 0ms infinite;}.ljicTeRT_6{stroke-dasharray:219 221;stroke-dashoffset:220;animation:ljicTeRT_draw_6 4900ms ease-in-out 0ms infinite,ljicTeRT_fade 4900ms linear 0ms infinite;}.ljicTeRT_7{stroke-dasharray:12 14;stroke-dashoffset:13;animation:ljicTeRT_draw_7 4900ms ease-in-out 0ms infinite,ljicTeRT_fade 4900ms linear 0ms infinite;}.ljicTeRT_8{stroke-dasharray:130 132;stroke-dashoffset:131;animation:ljicTeRT_draw_8 4900ms ease-in-out 0ms infinite,ljicTeRT_fade 4900ms linear 0ms infinite;}.ljicTeRT_9{stroke-dasharray:124 126;stroke-dashoffset:125;animation:ljicTeRT_draw_9 4900ms ease-in-out 0ms infinite,ljicTeRT_fade 4900ms linear 0ms infinite;}.ljicTeRT_10{stroke-dasharray:135 137;stroke-dashoffset:136;animation:ljicTeRT_draw_10 4900ms ease-in-out 0ms infinite,ljicTeRT_fade 4900ms linear 0ms infinite;}.ljicTeRT_11{stroke-dasharray:146 148;stroke-dashoffset:147;animation:ljicTeRT_draw_11 4900ms ease-in-out 0ms infinite,ljicTeRT_fade 4900ms linear 0ms infinite;}.ljicTeRT_12{stroke-dasharray:103 105;stroke-dashoffset:104;animation:ljicTeRT_draw_12 4900ms ease-in-out 0ms infinite,ljicTeRT_fade 4900ms linear 0ms infinite;}.ljicTeRT_13{stroke-dasharray:146 148;stroke-dashoffset:147;animation:ljicTeRT_draw_13 4900ms ease-in-out 0ms infinite,ljicTeRT_fade 4900ms linear 0ms infinite;}@keyframes ljicTeRT_draw{100%{stroke-dashoffset:0;}}@keyframes ljicTeRT_fade{0%{stroke-opacity:1;}93.87755102040816%{stroke-opacity:1;}100%{stroke-opacity:0;}}@keyframes ljicTeRT_draw_0{6.122448979591836%{stroke-dashoffset: 15}7.094266277939747%{ stroke-dashoffset: 0;}100%{ stroke-dashoffset: 0;}}@keyframes ljicTeRT_draw_1{7.094266277939747%{stroke-dashoffset: 29}8.973113054745706%{ stroke-dashoffset: 0;}100%{ stroke-dashoffset: 0;}}@keyframes ljicTeRT_draw_2{8.973113054745708%{stroke-dashoffset: 89}14.73922902494331%{ stroke-dashoffset: 0;}100%{ stroke-dashoffset: 0;}}@keyframes ljicTeRT_draw_3{14.73922902494331%{stroke-dashoffset: 23}16.229348882410104%{ stroke-dashoffset: 0;}100%{ stroke-dashoffset: 0;}}@keyframes ljicTeRT_draw_4{16.229348882410104%{stroke-dashoffset: 23}17.719468739876902%{ stroke-dashoffset: 0;}100%{ stroke-dashoffset: 0;}}@keyframes ljicTeRT_draw_5{17.719468739876902%{stroke-dashoffset: 58}21.47716229348882%{ stroke-dashoffset: 0;}100%{ stroke-dashoffset: 0;}}@keyframes ljicTeRT_draw_6{21.47716229348882%{stroke-dashoffset: 220}35.73048266925817%{ stroke-dashoffset: 0;}100%{ stroke-dashoffset: 0;}}@keyframes ljicTeRT_draw_7{35.73048266925818%{stroke-dashoffset: 13}36.572724327826364%{ stroke-dashoffset: 0;}100%{ stroke-dashoffset: 0;}}@keyframes ljicTeRT_draw_8{36.572724327826364%{stroke-dashoffset: 131}45.05992873339812%{ stroke-dashoffset: 0;}100%{ stroke-dashoffset: 0;}}@keyframes ljicTeRT_draw_9{45.05992873339812%{stroke-dashoffset: 125}53.158406219630706%{ stroke-dashoffset: 0;}100%{ stroke-dashoffset: 0;}}@keyframes ljicTeRT_draw_10{53.158406219630706%{stroke-dashoffset: 136}61.96954972465176%{ stroke-dashoffset: 0;}100%{ stroke-dashoffset: 0;}}@keyframes ljicTeRT_draw_11{61.96954972465176%{stroke-dashoffset: 147}71.49335924846129%{ stroke-dashoffset: 0;}100%{ stroke-dashoffset: 0;}}@keyframes ljicTeRT_draw_12{71.4933592484613%{stroke-dashoffset: 104}78.2312925170068%{ stroke-dashoffset: 0;}100%{ stroke-dashoffset: 0;}}@keyframes ljicTeRT_draw_13{78.2312925170068%{stroke-dashoffset: 147}87.75510204081633%{ stroke-dashoffset: 0;}100%{ stroke-dashoffset: 0;}}</style></svg>
