<svg id="ID用" xmlns="http://www.w3.org/2000/svg" viewBox="0 0 257.742 550.397"><defs><style>.cls-1{fill:none;stroke:#212121;stroke-linecap:round;stroke-linejoin:round;stroke-width:5px;}</style></defs><line class="cls-1" x1="87.537" y1="107.404" x2="170.219" y2="107.404"/><line class="cls-1" x1="45.6" y1="177.912" x2="213.447" y2="177.912"/><path class="cls-1" d="M927.9,3.1l.15,112.076c-.565,51.333-40.34,69.271-67.18,80.186-35.743,13.135-56.053,36.02-59.11,73.794,0,78.69.41,174.436.41,174.436" transform="translate(-799.169 104.303)"/><path class="cls-1" d="M885.225,303.539s47.684,52.55,0,112.262" transform="translate(-799.169 104.303)"/><path class="cls-1" d="M1011.063,303.539s-47.684,52.55,0,112.262" transform="translate(-799.169 104.303)"/><path class="cls-1" d="M1010.514,144.117s5.683,35.136-28.272,63.215-34,53.057-34,66.407V443.453" transform="translate(-799.169 104.303)"/><path class="cls-1" d="M801.757,144.117l-.088-162.249s.354-41.976,42.05-41.955,167.847,0,167.847,0,39.973-.133,41.961,41.962,0,419.616,0,419.616,1.512,41.962-41.961,41.962-126.853-.35-126.853-.35-41.071-2.57-41.071-41.612V279.014" transform="translate(-799.169 104.303)"/><path class="cls-1" d="M907.038-80.945A20.858,20.858,0,0,1,927.9-101.8a20.858,20.858,0,0,1,20.858,20.858" transform="translate(-799.169 104.303)"/></svg>