<svg id="ID用" xmlns="http://www.w3.org/2000/svg" viewBox="0 0 257.742 550.397" style=""><defs><style>.cls-1{fill:none;stroke:#212121;stroke-linecap:round;stroke-linejoin:round;stroke-width:5px;}</style></defs><path class="cls-1 HEPSfsuC_0" d="M87.537,107.404L170.219,107.404"></path><path class="cls-1 HEPSfsuC_1" d="M45.6,177.912L213.447,177.912"></path><path class="cls-1 HEPSfsuC_2" d="M927.9,3.1l.15,112.076c-.565,51.333-40.34,69.271-67.18,80.186-35.743,13.135-56.053,36.02-59.11,73.794,0,78.69.41,174.436.41,174.436" transform="translate(-799.169 104.303)"></path><path class="cls-1 HEPSfsuC_3" d="M885.225,303.539s47.684,52.55,0,112.262" transform="translate(-799.169 104.303)"></path><path class="cls-1 HEPSfsuC_4" d="M1011.063,303.539s-47.684,52.55,0,112.262" transform="translate(-799.169 104.303)"></path><path class="cls-1 HEPSfsuC_5" d="M1010.514,144.117s5.683,35.136-28.272,63.215-34,53.057-34,66.407V443.453" transform="translate(-799.169 104.303)"></path><path class="cls-1 HEPSfsuC_6" d="M801.757,144.117l-.088-162.249s.354-41.976,42.05-41.955,167.847,0,167.847,0,39.973-.133,41.961,41.962,0,419.616,0,419.616,1.512,41.962-41.961,41.962-126.853-.35-126.853-.35-41.071-2.57-41.071-41.612V279.014" transform="translate(-799.169 104.303)"></path><path class="cls-1 HEPSfsuC_7" d="M907.038-80.945A20.858,20.858,0,0,1,927.9-101.8a20.858,20.858,0,0,1,20.858,20.858" transform="translate(-799.169 104.303)"></path><style data-made-with="vivus-instant">.HEPSfsuC_0{stroke-dasharray:83 85;stroke-dashoffset:84;animation:HEPSfsuC_draw_0 4800ms ease-in-out 0ms infinite,HEPSfsuC_fade 4800ms linear 0ms infinite;}.HEPSfsuC_1{stroke-dasharray:168 170;stroke-dashoffset:169;animation:HEPSfsuC_draw_1 4800ms ease-in-out 0ms infinite,HEPSfsuC_fade 4800ms linear 0ms infinite;}.HEPSfsuC_2{stroke-dasharray:500 502;stroke-dashoffset:501;animation:HEPSfsuC_draw_2 4800ms ease-in-out 0ms infinite,HEPSfsuC_fade 4800ms linear 0ms infinite;}.HEPSfsuC_3{stroke-dasharray:123 125;stroke-dashoffset:124;animation:HEPSfsuC_draw_3 4800ms ease-in-out 0ms infinite,HEPSfsuC_fade 4800ms linear 0ms infinite;}.HEPSfsuC_4{stroke-dasharray:123 125;stroke-dashoffset:124;animation:HEPSfsuC_draw_4 4800ms ease-in-out 0ms infinite,HEPSfsuC_fade 4800ms linear 0ms infinite;}.HEPSfsuC_5{stroke-dasharray:320 322;stroke-dashoffset:321;animation:HEPSfsuC_draw_5 4800ms ease-in-out 0ms infinite,HEPSfsuC_fade 4800ms linear 0ms infinite;}.HEPSfsuC_6{stroke-dasharray:1264 1266;stroke-dashoffset:1265;animation:HEPSfsuC_draw_6 4800ms ease-in-out 0ms infinite,HEPSfsuC_fade 4800ms linear 0ms infinite;}.HEPSfsuC_7{stroke-dasharray:66 68;stroke-dashoffset:67;animation:HEPSfsuC_draw_7 4800ms ease-in-out 0ms infinite,HEPSfsuC_fade 4800ms linear 0ms infinite;}@keyframes HEPSfsuC_draw{100%{stroke-dashoffset:0;}}@keyframes HEPSfsuC_fade{0%{stroke-opacity:1;}91.66666666666667%{stroke-opacity:1;}100%{stroke-opacity:0;}}@keyframes HEPSfsuC_draw_0{8.333333333333332%{stroke-dashoffset: 84}10.178907721280602%{ stroke-dashoffset: 0;}100%{ stroke-dashoffset: 0;}}@keyframes HEPSfsuC_draw_1{10.178907721280602%{stroke-dashoffset: 169}13.892027620841182%{ stroke-dashoffset: 0;}100%{ stroke-dashoffset: 0;}}@keyframes HEPSfsuC_draw_2{13.892027620841182%{stroke-dashoffset: 501}24.89956057752668%{ stroke-dashoffset: 0;}100%{ stroke-dashoffset: 0;}}@keyframes HEPSfsuC_draw_3{24.89956057752668%{stroke-dashoffset: 124}27.623979912115505%{ stroke-dashoffset: 0;}100%{ stroke-dashoffset: 0;}}@keyframes HEPSfsuC_draw_4{27.623979912115505%{stroke-dashoffset: 124}30.348399246704332%{ stroke-dashoffset: 0;}100%{ stroke-dashoffset: 0;}}@keyframes HEPSfsuC_draw_5{30.348399246704332%{stroke-dashoffset: 321}37.40112994350282%{ stroke-dashoffset: 0;}100%{ stroke-dashoffset: 0;}}@keyframes HEPSfsuC_draw_6{37.40112994350282%{stroke-dashoffset: 1265}65.19460138104208%{ stroke-dashoffset: 0;}100%{ stroke-dashoffset: 0;}}@keyframes HEPSfsuC_draw_7{65.19460138104206%{stroke-dashoffset: 67}66.66666666666666%{ stroke-dashoffset: 0;}100%{ stroke-dashoffset: 0;}}</style></svg>